<svg xmlns="http://www.w3.org/2000/svg" width="1024" height="1024" viewBox="0 0 1024 1024"><rect width="1024" height="1024" rx="220" fill="#cde6e5"/><path d="M0 820 1024 300V1024H0Z" fill="#adc997"/><path d="m0 880 1024-520v100L0 980" fill="#ecedbf"/><g transform="translate(525 460) rotate(-24)"><ellipse cy="40" rx="230" ry="278" fill="#294d4c"/><ellipse cx="-35" cy="10" rx="195" ry="258" fill="#405c59"/><ellipse cx="-50" cy="5" rx="102" ry="151" fill="#f5ce78"/><ellipse cx="-50" cy="5" rx="43" ry="74" fill="#fcf8e9"/><g stroke="#728984" stroke-width="25"><path d="m120-182 70 30M160-105l70 30m-56 50 70 30m-61 50 70 30m-76 46 70 30m-105 47 70 30"/></g></g><g stroke="#fcf8e9" stroke-width="22" stroke-linecap="round"><path d="m90 420 98-50m-72 141 72-36m-35 124 49-25"/></g></svg>
